Coordinates

Units are S.I. units (second, meters, Newtons, ...)
If the header above contains a line with 'inDegrees', this indicates whether rotational values are in degrees (yes) or radians (no).

inDegrees=no
nColumns=21
nRows=19
DataType=double
version=3
OpenSimVersion=4.6-2026-03-31-d6972f9e6
endheader
time	/jointset/ground_pelvis/pelvis_tilt/value	/jointset/ground_pelvis/pelvis_list/value	/jointset/ground_pelvis/pelvis_rotation/value	/jointset/ground_pelvis/pelvis_tx/value	/jointset/ground_pelvis/pelvis_ty/value	/jointset/ground_pelvis/pelvis_tz/value	/jointset/hip_r/hip_flexion_r/value	/jointset/hip_r/hip_adduction_r/value	/jointset/hip_r/hip_rotation_r/value	/jointset/walker_knee_r/knee_angle_r/value	/jointset/patellofemoral_r/knee_angle_r_beta/value	/jointset/ankle_r/ankle_angle_r/value	/jointset/subtalar_r/subtalar_angle_r/value	/jointset/hip_l/hip_flexion_l/value	/jointset/hip_l/hip_adduction_l/value	/jointset/hip_l/hip_rotation_l/value	/jointset/walker_knee_l/knee_angle_l/value	/jointset/patellofemoral_l/knee_angle_l_beta/value	/jointset/ankle_l/ankle_angle_l/value	/jointset/subtalar_l/subtalar_angle_l/value
139.996	-0.2296857018411984	-0.01501861929993597	0.03253563658339732	0.9930597500000672	0.9963584600000707	-0.350505540000024	0.6350296306151922	-0.008760966414383545	0.08189970360607256	0.2924488873770376	0.2924488900000187	-0.1762478895621805	-0.2763972837892022	-0.1932138542154422	0.01975541147392257	-0.1104573011098551	0.2699852862019076	0.2699852900000147	-0.4791330211980691	-0.1638015588540452
140	-0.233122104595188	-0.01551319631360754	0.02634293441135218	0.9936472349174515	0.9954972253106356	-0.3494855396763399	0.6374049788039182	-0.002902958226320217	0.08443548321712113	0.2843908171922241	0.2843908192082471	-0.1794086705412629	-0.2691982388320116	-0.1868117054380035	0.01782697048250249	-0.1156531687923961	0.2942896978684767	0.2942897010419221	-0.4922368707635749	-0.1772807775193256
140.004	-0.2365174255221983	-0.01597630533257121	0.02021529566347423	0.9942332973559037	0.9946218568166668	-0.3484725518538482	0.6397412443798599	0.002902304038517969	0.08694251424076738	0.2766368874566711	0.2766368888862757	-0.182574404374057	-0.2623539180053128	-0.1803858322432292	0.01595930832852372	-0.1205785548286856	0.3186604628095593	0.318660465376964	-0.5052259582369872	-0.1906377588333965
140.008	-0.2398298397402861	-0.01637755892252277	0.01421548983456726	0.9948164556448262	0.9937185675287078	-0.3474732425206462	0.6419998391885939	0.008604274072466746	0.08939267009400688	0.2694859057403529	0.2694859066233929	-0.1857427211803571	-0.256208235242418	-0.1739129937800545	0.0142109393891896	-0.124976277139035	0.3431661498278306	0.3431661518241926	-0.5179843104127995	-0.2037528155351868
140.012	-0.2430161721230145	-0.01668872359393111	0.008401806588086501	0.9953951000312179	0.9927742394041876	-0.3464936037587651	0.6441432902565936	0.01415669325358519	0.09175894670545048	0.26322623609316	0.2632262364866566	-0.1888971535079816	-0.2510835920301075	-0.167370958850955	0.01263585716325583	-0.128614949331343	0.367879234548223	0.3678792360212432	-0.5303940054993114	-0.216511122022478
140.016	-0.2460314708305217	-0.01688474842102192	0.002826063244369467	0.9959674109659019	0.9917767084794762	-0.3455386621682705	0.6461359632074277	0.01951945413672353	0.09401579841013094	0.2581310296810147	0.258131029656435	-0.1920014266171655	-0.247270505507379	-0.1607391862612675	0.01128134299870358	-0.1312999536152959	0.3928768289462186	0.392876829952241	-0.54233524444613	-0.2288046352799053
140.02	-0.2488287451696799	-0.01694468657004114	-0.002468128474901678	0.9965312674262363	0.9907150115927551	-0.3446122368985719	0.6479447598566046	0.02466013220836366	0.09613934153116291	0.2544538304136871	0.2544538300537691	-0.194995283076387	-0.245017936636863	-0.1539997664066793	0.01018594342364478	-0.1328822940304461	0.4182401903404941	0.4182401909408565	-0.5536873696291863	-0.2405336102842339
140.024	-0.2513588792351753	-0.01685245416687814	-0.007446776587610621	0.9970841497428242	0.9895795948616785	-0.3437167584027985	0.6495396991265647	0.02955510314949201	0.09810748833555299	0.2524245840426285	0.2524245834376401	-0.1977922384439278	-0.2445247799255675	-0.1471386025137955	0.009377725043733978	-0.1332648654841209	0.4440529807718743	0.4440529810300551	-0.5643307886575356	-0.2516078251045377
140.028	-0.2535707702193354	-0.01659739191339563	-0.01208655125583749	0.9976230420503341	0.9883624830546379	-0.3428531559587897	0.6508943558323248	0.0341901979980413	0.09990008442025118	0.2522460961749643	0.2522460954183579	-0.2002795322999708	-0.2459329752322938	-0.1401466872174272	0.008872896984036665	-0.1324058327644815	0.4703984440974202	0.4703984440769223	-0.5741496152286212	-0.2619476667246878
140.032	-0.255411732969797	-0.01617461326063591	-0.01637541990912607	0.9981443415410012	0.98705740992382	-0.3420208185134073	0.651986140461372	0.03856088396167456	0.1014991142066962	0.2540909695769658	0.2540909687606939	-0.2023203419876154	-0.2493226230458299	-0.133021289667613	0.008674864068085635	-0.1303190238338005	0.4973558016574788	0.4973558014201078	-0.5830347264419471	-0.2714851640268129
140.036	-0.256828231013184	-0.01558515782207043	-0.02031285529415378	0.9986437819541111	0.9856599051083235	-0.3412176299773558	0.6527964401043919	0.04267200638254149	0.102888991270374	0.2580990197274691	0.2580990189374721	-0.203758130770038	-0.2547093851134696	-0.1257668079815339	0.008773718861161864	-0.1270714743912464	0.5249962878359138	0.524996287440152	-0.5908868697135178	-0.2801650381761302
140.04	-0.2577670459898646	-0.01483600918434586	-0.02390960659439132	0.9991163764697446	0.9841673247642334	-0.3404400767612143	0.6533107261052188	0.04653717683647345	0.1040569025823768	0.2643751550666742	0.2643751543790233	-0.2044228613519611	-0.2620443703013778	-0.1183949605843708	0.009146121750449085	-0.1227784372676132	0.5533793259234049	0.5533793254228023	-0.597619459441853	-0.2879458978877698
140.044	-0.2581769410392206	-0.01394002827103821	-0.02718704511879403	0.9995563859297001	0.9825788179970376	-0.3396834219209698	0.6535187115979569	0.05017789886424449	0.1049931793560152	0.2729877254996048	0.2729877249775498	-0.2041386740770292	-0.2712165688134159	-0.1109240963017633	0.009755528142252369	-0.1175962558496582	0.5825492549447262	0.582549254386416	-0.6031607871814217	-0.2948016081289072
140.048	-0.2580107044803153	-0.01291580714302275	-0.03017612943865123	0.9999573227790903	0.9808952393803724	-0.3389419373340731	0.6534144965719033	0.05362249140578022	0.1056916805452415	0.2839673699645622	0.2839673696564909	-0.2027324668118654	-0.2820576579443559	-0.1033776862249254	0.01055277754515679	-0.1117135553984863	0.6125328004619973	0.6125327998855354	-0.6074554826291941	-0.3007225924999409
140.052	-0.2572273748945206	-0.01178743022745903	-0.03291605204745112	1.000312002111411	0.979119026199282	-0.3382091837419898	0.6529965789006471	0.05690485312032951	0.1061501374918352	0.297306409267991	0.2973064092062577	-0.2000427039202937	-0.2943487886346515	-0.09578221514010687	0.0114770662924587	-0.105341276422417	0.643337344777842	0.6433373442145074	-0.6104651643722576	-0.3057167143637256
140.056	-0.2557944991213955	-0.01058414575403297	-0.03545262571125457	1.000612646537143	0.9772540518178928	-0.3374783278158266	0.6522676942088059	0.06006311810725112	0.1063703539153957	0.312958833448402	0.3129588336490963	-0.1959277971116816	-0.3078288881775867	-0.08816464252272141	0.0124572834501982	-0.09870212582867836	0.6749500347701427	0.6749500342426997	-0.6121683084289959	-0.3098095110929129
140.06	-0.2536903281247311	-0.009339958784168406	-0.03783646609655365	1.000851046185409	0.9753054591866792	-0.3367424843891969	0.6512345271242406	0.06313825782854582	0.1063581461962618	0.330840928347182	0.3308409288109265	-0.1902734929705312	-0.3222040248434164	-0.08054955266843751	0.01341366107483994	-0.09202002071789649	0.7073377454929783	0.7073377450158931	-0.6125594382912168	-0.3130437118492235
140.064	-0.2509058639312258	-0.008093149515290892	-0.04012103338704338	1.001018770966347	0.9732794770245566	-0.3359950702993892	0.6499073532973973	0.0661726768289832	0.1061229460440464	0.3508325722354175	0.3508325729490778	-0.1829988141779294	-0.3371574022245843	-0.07295612869288012	0.014259687135652	-0.08551005190065888	0.7404478570089239	0.7404478565891373	-0.6116477904855522	-0.3154780420154545
140.068	-0.2474466791036216	-0.006885709480965906	-0.04236059759303863	1.001107427626527	0.9711832207675133	-0.3352301544835057	0.6482996780720034	0.06920883821025436	0.1056770421678668	0.3727792151793458	0.3727792161183539	-0.1740602313979756	-0.3523595857267064	-0.06539509453186026	0.01490423100496887	-0.07936941207650511	0.7742097464637145	0.774209746102079	-0.6094556309034644	-0.3171853493408848
